<svg width="128" height="128" viewBox="0 0 128 128" fill="none" xmlns="http://www.w3.org/2000/svg">
<path d="M46.4778 56C46.3642 54.5795 45.8315 53.4716 44.8798 52.6761C43.9423 51.8807 42.5147 51.483 40.5971 51.483C39.3755 51.483 38.3741 51.6321 37.5929 51.9304C36.8258 52.2145 36.2576 52.6051 35.8883 53.1023C35.519 53.5994 35.3272 54.1676 35.313 54.8068C35.2846 55.3324 35.377 55.8082 35.59 56.2344C35.8173 56.6463 36.1724 57.0227 36.6554 57.3636C37.1383 57.6903 37.7562 57.9886 38.5091 58.2585C39.2619 58.5284 40.1568 58.7699 41.1937 58.983L44.7733 59.75C47.188 60.2614 49.2548 60.9361 50.9735 61.7741C52.6923 62.6122 54.0985 63.5994 55.1923 64.7358C56.286 65.858 57.0886 67.1222 57.6 68.5284C58.1255 69.9347 58.3954 71.4687 58.4096 73.1307C58.3954 76 57.6781 78.429 56.2576 80.4176C54.8372 82.4062 52.8059 83.919 50.1639 84.956C47.536 85.9929 44.3755 86.5114 40.6824 86.5114C36.8897 86.5114 33.5801 85.9503 30.7534 84.8281C27.9409 83.706 25.7534 81.9801 24.1909 79.6506C22.6426 77.3068 21.8613 74.3097 21.8471 70.6591H33.0971C33.1681 71.9943 33.502 73.1165 34.0985 74.0256C34.6951 74.9347 35.5332 75.6236 36.6127 76.0923C37.7065 76.5611 39.0062 76.7955 40.5119 76.7955C41.7761 76.7955 42.8343 76.6392 43.6866 76.3267C44.5389 76.0142 45.1852 75.581 45.6255 75.027C46.0659 74.473 46.2931 73.8409 46.3074 73.1307C46.2931 72.4631 46.073 71.8807 45.6468 71.3835C45.2349 70.8722 44.5531 70.4176 43.6014 70.0199C42.6497 69.608 41.3642 69.2244 39.7449 68.8693L35.3983 67.9318C31.5346 67.0937 28.4877 65.6946 26.2576 63.7344C24.0417 61.7599 22.9409 59.0682 22.9551 55.6591C22.9409 52.8892 23.6795 50.4673 25.171 48.3935C26.6767 46.3054 28.7576 44.679 31.4139 43.5142C34.0843 42.3494 37.1454 41.767 40.5971 41.767C44.1199 41.767 47.1667 42.3565 49.7377 43.5355C52.3088 44.7145 54.2903 46.3764 55.6824 48.5213C57.0886 50.652 57.7988 53.1449 57.813 56H46.4778ZM105.189 64.1818C105.189 69.0398 104.244 73.1378 102.355 76.4759C100.466 79.7997 97.916 82.321 94.7058 84.0398C91.4956 85.7443 87.916 86.5966 83.9672 86.5966C79.9899 86.5966 76.3961 85.7372 73.1859 84.0185C69.9899 82.2855 67.4473 79.7571 65.5581 76.4332C63.6831 73.0952 62.7456 69.0114 62.7456 64.1818C62.7456 59.3239 63.6831 55.233 65.5581 51.9091C67.4473 48.571 69.9899 46.0497 73.1859 44.3452C76.3961 42.6264 79.9899 41.767 83.9672 41.767C87.916 41.767 91.4956 42.6264 94.7058 44.3452C97.916 46.0497 100.466 48.571 102.355 51.9091C104.244 55.233 105.189 59.3239 105.189 64.1818ZM93.0012 64.1818C93.0012 61.5682 92.6532 59.3665 91.9572 57.5767C91.2754 55.7727 90.2598 54.4091 88.9103 53.4858C87.5751 52.5483 85.9274 52.0795 83.9672 52.0795C82.0069 52.0795 80.3521 52.5483 79.0027 53.4858C77.6674 54.4091 76.6518 55.7727 75.9558 57.5767C75.274 59.3665 74.9331 61.5682 74.9331 64.1818C74.9331 66.7955 75.274 69.0043 75.9558 70.8082C76.6518 72.598 77.6674 73.9616 79.0027 74.8991C80.3521 75.8224 82.0069 76.2841 83.9672 76.2841C85.9274 76.2841 87.5751 75.8224 88.9103 74.8991C90.2598 73.9616 91.2754 72.598 91.9572 70.8082C92.6532 69.0043 93.0012 66.7955 93.0012 64.1818Z" fill="#CDA7FF"/>
</svg>
